<svg version="1.0" xmlns="http://www.w3.org/2000/svg" width="800" height="800" viewBox="0 0 600 600" class="shape" data-v-0f20ebc2="" style="height: 87%;"><path d="M227.5 55.4c-37.9 6.1-70.7 23.5-96.5 51.4-13.4 14.4-14 15.1-14 15.7 0 .2-2.3 3.9-5.1 8.2-10.3 15.7-18 34.2-22.3 53.3-4.2 19.2-4.6 28.5-4.6 116.1 0 95.4.4 101.7 7.2 125.9 1.1 4.1 2.1 7.9 2.3 8.5.4 2 10.6 24.6 11.7 26 .5.5 3.1 4.6 5.9 9 7.4 11.5 13.1 18.4 23.4 28.5 24.3 23.9 51.5 38.2 86.5 45.7 7.7 1.6 14.7 1.8 78 1.8 63.4 0 70.2-.2 78-1.8 36.8-7.9 65.2-23.5 90.3-49.7 26.6-27.8 42-61.8 45.6-101 1.5-15.4 1.5-170.6 0-186-3.6-38.9-19.2-73.6-45.3-100.8C443.5 80.1 416.4 65 380 56.7c-9.2-2.1-11.9-2.1-77-2.3-50.8-.2-69.5.1-75.5 1zm44.4 11c-.2.2-19.4 9.9-42.6 21.5L187 109V81.2l9.1-3.6c4.9-2 9.4-3.4 10-3.1.5.4.9.2.9-.3 0-2 24.4-6.7 39-7.5 9-.5 26.4-.7 25.9-.3zm84.5.6c7.7.6 14.5 1.5 15.1 2 .7.5 1.5.7 1.8.4 1-1 18.1 3.4 29 7.4l9.7 3.6v13.8c0 7.6-.3 13.8-.7 13.7-.5 0-19.5-9.4-42.3-20.9l-41.5-20.9h7.5c4.1-.1 13.8.4 21.4.9zm47.3 52.4c.1.1-23.5 12.1-52.5 26.7l-52.7 26.6-51.7-26.6-51.7-26.6 18.4-9.2c10.2-5.1 19-9.4 19.7-9.5.7-.2 1.9-.9 2.6-1.6.8-.7 1.7-1 2.2-.7.5.3 1 .1 1.2-.4.1-.5 13.8-7.6 30.3-15.9l30-15 52 26c28.6 14.3 52.1 26.1 52.2 26.2zm46.1-12.8l6.7 6.3-15.7.1H425V87.9l9 6.2c5 3.4 12.1 9 15.8 12.5zm-276.1 6.1c-.2.2-7.3.2-15.8.1l-15.3-.3 7.9-6.8c4.4-3.8 11.4-9.1 15.5-11.9l7.5-5 .3 11.7c.1 6.5.1 11.9-.1 12.2zm.3 37.3v24h-31v-48h31v24zm282 0v24h-31v-48h31v24zm-325 .5V174h-12c-9 0-12-.3-12-1.3 0-1.8 5.4-15.5 8.6-21.9 2.5-5 14.4-23.8 15.1-23.8.2 0 .3 10.6.3 23.5zm344.2-15.8c6.5 9.9 11.3 18.8 14.6 27.3 5.3 13.4 6.2 12-7.7 12H470v-23c0-12.7.2-23 .4-23 .1 0 2.3 3 4.8 6.7zM243 158.9c.3.3 1 .7 1.5.8.6.1 7.1 3.3 14.5 7.2l13.5 7.1H187v-44.1l27.8 14.2c15.2 7.8 27.9 14.5 28.2 14.8zm169-6.4V174h-85.5l42-21.5c23.1-11.7 42.3-21.4 42.8-21.4.4-.1.7 9.6.7 21.4zm-284.1 39.7c-1.2 2.9-3.2 8.1-4.5 11.6-1.3 3.4-3 7.7-3.8 9.5-.8 1.7-3.3 8.1-5.6 14.2-2.3 6-4.8 12.3-5.5 14-.7 1.6-3.2 7.9-5.5 14-2.3 6-4.4 11.2-4.7 11.5-.3.3-.3-13.7 0-31 .3-24.4.8-33.5 2.2-40.3l1.7-8.7H130l-2.1 5.2zm46 33.5c0 21.4-.4 37.9-.9 36.8-2.8-6.8-29-74.5-29-75 0-.3 6.8-.5 15-.5h15l-.1 38.7zM412 299.5V412H187V187h225v112.5zm41-111.9c0 .5-24.6 67.7-26.9 73.4-.7 1.7-1-9.1-1-35.8L425 187h14c7.7 0 14 .3 14 .6zm45.8 5.8c2.4 12.6 3.3 27.4 3 48.4l-.3 21.2-11.9-31.7c-6.5-17.5-12.9-34.6-14.2-38.1L473 187H497.7l1.1 6.4zm-15.9 58.1l18.1 47.9-4.6 12.1c-2.5 6.6-4.9 12.4-5.2 13-.4.5-.7 1.6-.8 2.3-.3 1.8-11.7 31.6-12.3 32.2-.3.3-.7 1.2-.9 2-.7 4.2-13.7 36.9-14.3 36.3-.4-.5-8.9-22.5-18.8-49.1L426 300l17.4-47.3c21.8-59.1 19.6-53.7 20.6-51.2.5 1.1 9 23.6 18.9 50zm-342-35.8c1.8 4.8 4.1 10.6 5 12.8 2.3 5.1 6.9 17.5 7.3 19.5.2.8.6 1.7.9 2 .3.3 2.3 5 4.4 10.5 2 5.5 4.5 11.8 5.5 14 3 6.9 7.3 18.9 7.3 20.2 0 .7.4 1.3.8 1.3 1.3 0 1.7 4 .6 7.5-.6 1.9-1.3 3.5-1.7 3.5-.4 0-.7.6-.7 1.4 0 1.7-9.4 27.9-10.2 28.6-.3.3-.7 1.2-.9 2-.6 3.3-21.5 60-22 59.5-.3-.2-9-22-19.3-48.2L99 302.5l18.7-48.2c10.2-26.5 18.9-48 19.3-47.8.4.2 2.2 4.4 3.9 9.2zm360.8 151.8c-.5 24.5-1.4 36.4-3.3 42.7-.5 1.6-2 1.8-13.3 1.8h-12.8l14.6-38.5c8.8-23.3 14.7-37.6 15-36.3.2 1.3.1 14.9-.2 30.3zm-61.7 8c7.2 19.3 13 35.4 13 35.8 0 .4-6.3.7-14 .7h-14l.1-38.3c0-25.9.3-37.4 1-35.7.5 1.4 6.8 18.3 13.9 37.5zm-338.8-29.7c.2.9.6 1.9.9 2.2.6.6 5.6 13.6 6.1 16 .2.8.6 1.7.9 2 .6.5 17.9 44.4 17.9 45.5 0 .3-5.7.4-12.7.3l-12.8-.3-1.3-7.5c-.7-4.4-1.5-19.9-1.8-37-.4-26.7-.3-29.2 1-26.2.9 1.8 1.7 4 1.8 5zM174 375v37h-13.5c-7.4 0-13.5-.3-13.5-.7 0-.9 26.4-73.3 26.8-73.3.1 0 .2 16.6.2 37zm-43 73.6c0 14.7-.4 23.3-1 22.9-1.6-1-11.6-16.7-15.3-24-2.9-5.9-8.7-20.6-8.7-22.1 0-.2 5.6-.4 12.5-.4H131v23.6zm43-.1V472h-31v-47h31v23.5zm95-22.1c-5.6 3-81.4 41.6-81.7 41.6-.2 0-.3-9.7-.3-21.5V425h42.3c35.8.1 41.8.3 39.7 1.4zm143 22.2v23.5l-5.2-2.9c-2.9-1.6-21.9-12.1-42.3-23.2-20.3-11.1-37.2-20.4-37.4-20.6-.2-.2 18.8-.4 42.2-.4H412v23.6zm44-.1V472h-31v-47h31v23.5zm38.3-21.5c-.3 1.1-.8 2-1.2 2-.4 0-.8 1-.8 2.2-.3 3.3-13.6 29.3-18.3 35.8l-4 5.5V425h12.4c11.9 0 12.4.1 11.9 2zm-165.5 14.2c15.2 8.4 27.9 15.5 28.2 15.8.3.3 1.6 1 3 1.6 1.4.7 10.3 5.4 19.8 10.7l17.3 9.5-47.9 26.6C322.9 520 300.7 532 300 532c-1.2 0-50-24.9-90.9-46.3-12.8-6.7-13.9-7.8-9.1-8.9.8-.2 1.9-.7 2.5-1.1 2-1.7 96-49.6 97.3-49.7.7 0 13.7 6.8 29 15.2zM174 498.1v13.1l-2.7-1.7c-7.1-4.5-18.4-13.1-24.3-18.5l-6.5-5.9 16.8-.1H174v13.1zm279-7.5c-5.4 5.4-15.3 13.3-23.7 18.7L425 512v-27h33.4l-5.4 5.6zm-41 12v16.5l-5.3 2.3c-7 3.1-19.5 7.1-28.7 9-8.4 1.8-37.1 3.9-46.8 3.4l-6.3-.3 42.8-23.7c23.5-13 43.1-23.7 43.6-23.7.4-.1.7 7.3.7 16.5zm-213.7-7.5c5.6 2.8 10.4 5.4 10.7 5.8.3.3 1 .7 1.6.8 1.2.2 61.6 31.2 62.4 32 .8.8-33.5-.7-41.5-1.8-10.7-1.4-23-4.7-34.2-9.1l-10.3-4v-14.4c0-7.9.2-14.4.5-14.4s5.1 2.3 10.8 5.1z"></path></svg>
