<svg xmlns:xlink="http://www.w3.org/1999/xlink" data-v-3d5c7389="" version="1.0" xmlns="http://www.w3.org/2000/svg" width="600" height="600" viewBox="0 0 600.000000 600.000000" preserveAspectRatio="xMidYMid meet" class="shape" style="height: 87%;"><g data-v-3d5c7389="" transform="translate(0.000000,600.000000) scale(0.100000,-0.100000)" stroke="none" fill="#929194"><path data-v-3d5c7389="" d="M1362 5169 l-242 -291 0 -1917 0 -1917 241 -252 240 -252 1442 0
1442 0 197 292 197 293 1 1883 0 1882 -242 285 -243 285 -1395 0 -1395 0 -243
-291z m2887 139 c-6 -13 -30 -53 -52 -90 l-39 -68 -1157 0 -1156 0 -48 90 -48
90 1256 0 1256 0 -12 -22z m-2566 -129 c21 -36 37 -71 37 -76 0 -6 -68 -93
-152 -194 l-151 -183 -69 73 -69 72 48 57 c291 348 296 353 308 335 7 -10 28
-48 48 -84z m2827 -62 c0 -2 15 -20 33 -39 17 -19 66 -75 108 -124 l77 -90
-70 -73 c-38 -40 -71 -71 -72 -69 -1 2 -71 85 -155 185 l-153 182 52 90 51 90
65 -74 c35 -40 64 -75 64 -78z m-430 -103 c0 -4 -19 -40 -42 -80 l-42 -74
-990 0 -991 0 -42 75 c-24 41 -43 77 -43 80 0 3 484 5 1075 5 591 0 1075 -3
1075 -6z m-2193 -222 c-7 -10 -67 -79 -131 -156 l-118 -138 -64 63 -63 62 55
66 c30 36 96 116 147 177 l92 110 48 -84 c42 -74 47 -86 34 -100z m2363 121
c0 -7 4 -13 8 -13 8 0 40 -37 199 -226 l42 -50 -63 -63 -63 -63 -132 152 -131
151 31 52 c16 29 38 67 46 85 l17 32 23 -22 c13 -12 23 -27 23 -35z m-361
-243 l-41 -70 -842 0 -842 0 -37 63 c-20 35 -37 67 -37 70 0 4 414 7 919 7
l920 0 -40 -70z m-2529 -1698 l0 -1624 -55 -56 -55 -57 0 1739 0 1739 55 -59
54 -59 1 -1623z m2810 1565 l113 -139 -55 -55 -54 -54 -107 127 -106 127 30
51 c17 28 35 61 41 74 6 12 14 19 18 15 4 -5 58 -70 120 -146z m580 -1544 l0
-1697 -50 49 -50 49 0 1600 0 1600 47 48 c26 26 49 48 50 48 2 0 3 -764 3
-1697z m-2710 1545 c0 -10 -200 -248 -209 -248 -13 0 -103 98 -100 108 2 5 55
72 118 147 l113 137 39 -68 c21 -38 39 -72 39 -76z m1841 -110 c21 -24 38 -47
39 -51 0 -5 9 -16 19 -25 11 -10 51 -55 90 -102 l71 -84 0 -1163 0 -1163 -102
-155 -103 -154 -870 -1 -870 0 -123 129 -122 129 0 1192 0 1191 123 149 122
150 844 0 843 0 39 -42z m-2311 -1458 l-1 -1395 -39 -44 -40 -44 0 1484 1
1484 39 -45 40 -45 0 -1395z m2950 24 l0 -1456 -45 49 -44 48 -1 1365 0 1364
42 43 c23 24 43 43 45 43 2 0 3 -655 3 -1456z m-2740 -14 l0 -1176 -40 -39
-40 -39 0 1254 0 1254 40 -39 40 -39 0 -1176z m2520 18 l0 -1222 -35 34 -35
34 0 1155 0 1155 32 33 c18 18 33 33 35 33 2 0 3 -550 3 -1222z m-105 -1518
c-49 -71 -91 -127 -94 -124 -3 3 -22 35 -42 71 l-37 67 76 112 77 113 55 -54
54 -54 -89 -131z m-2225 50 l68 -75 -42 -72 -42 -72 -116 123 -116 123 56 56
56 57 34 -33 c19 -17 64 -66 102 -107z m2475 -90 l59 -60 -108 -160 c-59 -88
-109 -160 -111 -160 -1 0 -26 35 -53 79 l-50 79 96 141 c53 77 99 141 102 141
3 0 32 -27 65 -60z m-2679 -118 l122 -128 -45 -82 c-25 -45 -48 -82 -51 -82
-4 0 -70 66 -146 146 l-139 146 64 64 c35 35 66 64 69 64 3 0 60 -58 126 -128z
m2190 16 c20 -35 39 -66 41 -70 2 -5 -428 -8 -957 -8 l-961 0 17 33 c9 17 28
49 41 70 l23 37 879 0 880 0 37 -62z m703 -137 c34 -38 61 -72 61 -76 0 -8
-249 -373 -259 -379 -6 -4 -95 145 -103 171 -3 12 222 352 233 353 4 0 34 -31
68 -69z m-3154 -63 c44 -46 111 -115 148 -154 l69 -71 -53 -92 c-28 -50 -55
-90 -60 -89 -5 2 -80 79 -168 172 l-160 169 66 74 c36 40 68 73 72 73 4 0 42
-37 86 -82z m2613 -73 c23 -41 42 -77 42 -80 0 -3 -504 -5 -1120 -5 -616 0
-1120 3 -1120 6 0 4 19 40 42 80 l42 74 1035 0 1036 0 43 -75z m150 -267 c16
-29 40 -70 52 -90 l22 -38 -1305 0 -1306 0 52 90 51 90 1202 0 1202 0 30 -52z" fill="#929194"></path></g></svg>