<svg xmlns:xlink="http://www.w3.org/1999/xlink" data-v-3d5c7389="" version="1.0" xmlns="http://www.w3.org/2000/svg" width="600" height="600" viewBox="0 0 600.000000 600.000000" preserveAspectRatio="xMidYMid meet" class="shape" style="height: 87%;"><g data-v-3d5c7389="" transform="translate(0.000000,600.000000) scale(0.100000,-0.100000)" stroke="none" fill="#929194"><path data-v-3d5c7389="" d="M3870 5455 c-285 -49 -532 -169 -795 -386 l-97 -81 -42 39 c-164 156
-427 309 -631 368 -270 78 -561 71 -815 -20 -436 -156 -772 -565 -855 -1039
-65 -374 4 -718 244 -1211 146 -300 305 -558 523 -850 314 -421 620 -755 1286
-1407 264 -259 341 -328 361 -328 29 0 166 136 415 410 885 976 1638 2078
1841 2696 68 207 92 469 61 669 -59 387 -268 727 -571 929 -163 110 -196 126
-350 173 -171 51 -405 67 -575 38z m485 -155 c44 -12 97 -29 118 -38 l37 -17
-91 -190 c-50 -104 -95 -201 -100 -214 -10 -24 -21 -14 -249 214 -132 132
-236 243 -232 246 18 18 131 27 277 25 127 -3 177 -8 240 -26z m-2377 -22
c-330 -407 -442 -544 -447 -550 -5 -6 -201 406 -201 423 0 13 219 109 294 129
114 32 157 37 280 39 l108 1 -34 -42z m647 -479 l231 -225 -331 -67 -330 -68
-170 50 c-160 47 -365 115 -393 130 -8 5 73 112 249 330 l261 323 127 -124
c69 -68 230 -225 356 -349z m1397 119 l189 -197 -128 -64 c-70 -35 -180 -85
-243 -111 l-116 -47 -299 41 c-165 23 -300 42 -301 43 -1 1 128 150 288 330
l291 329 64 -64 c36 -34 150 -152 255 -260z m-1485 226 c95 -56 250 -169 336
-246 l48 -43 -3 -76 -3 -77 -265 259 c-174 170 -255 256 -236 249 16 -6 71
-35 123 -66z m2362 -169 c76 -79 211 -261 200 -269 -2 -1 -141 10 -309 25
-168 15 -317 28 -332 28 -16 1 -28 5 -28 10 0 4 45 101 100 215 l100 207 89
-61 c49 -33 130 -103 180 -155z m-1620 -12 c-100 -115 -193 -219 -205 -233
l-24 -25 0 83 0 82 98 81 c81 67 295 219 309 219 2 0 -78 -93 -178 -207z
m-1954 -131 c48 -106 86 -194 84 -196 -10 -8 -590 -148 -595 -144 -6 7 26 89
67 170 66 132 169 266 278 363 l54 47 12 -23 c7 -13 52 -111 100 -217z m3469
-227 c159 -13 291 -26 293 -29 3 -2 -73 -130 -169 -284 l-173 -280 -55 51
c-30 28 -92 86 -138 129 l-83 78 -33 185 -33 186 51 -6 c28 -3 181 -16 340
-30z m-494 -133 l25 -138 -175 51 c-96 28 -181 54 -189 56 -10 4 271 156 309
167 3 1 16 -60 30 -136z m-2850 -150 l0 -187 -101 -125 c-55 -69 -107 -131
-114 -139 -11 -11 -45 29 -203 235 -105 137 -189 250 -187 252 4 5 574 150
593 151 9 1 12 -43 12 -187z m530 38 c0 -7 -392 -161 -398 -156 -2 3 -6 70 -9
150 l-6 144 206 -66 c114 -37 207 -69 207 -72z m3257 -40 c22 -115 22 -336 -1
-455 -10 -49 -21 -94 -24 -101 -5 -7 -68 19 -184 76 l-177 86 172 281 172 281
12 -41 c7 -23 20 -80 30 -127z m-1974 111 c82 -11 151 -22 153 -24 7 -7 -207
-45 -293 -53 l-73 -7 0 57 0 57 33 -6 c17 -3 99 -14 180 -24z m-343 -38 l0
-56 -137 7 c-155 7 -233 16 -233 25 0 5 320 77 358 80 8 1 12 -16 12 -56z
m1117 -114 l281 -82 -23 -61 c-13 -33 -70 -180 -127 -327 l-105 -265 -296
-520 -296 -519 -217 -245 c-119 -135 -220 -246 -223 -248 -4 -1 -123 93 -266
210 l-258 213 -328 504 -327 504 -127 309 c-69 171 -125 311 -123 313 2 2 136
56 300 120 l296 116 149 -30 c234 -46 322 -55 553 -55 280 0 488 33 750 118
41 13 82 24 90 25 8 1 142 -36 297 -80z m-3097 -275 c100 -130 178 -240 173
-244 -14 -13 -284 -162 -288 -158 -1 1 -12 33 -23 70 -47 152 -70 353 -57 491
3 42 8 77 10 77 2 0 85 -106 185 -236z m3710 -89 c0 -6 -382 -227 -386 -223
-3 4 148 397 162 420 4 7 224 -187 224 -197z m-3076 -137 c43 -106 81 -199 83
-206 5 -10 -308 166 -330 187 -7 7 150 211 163 211 3 0 41 -87 84 -192z m3227
-346 c48 -185 87 -337 85 -339 -1 -2 -151 -79 -332 -172 l-329 -170 -6 182
c-4 100 -7 268 -8 373 l-1 192 248 145 c136 81 249 142 251 136 1 -6 43 -162
92 -347z m299 236 c36 -17 66 -31 68 -33 5 -5 -76 -203 -126 -309 l-48 -100
-75 281 -75 280 96 -44 c52 -25 124 -59 160 -75z m-3412 -275 c32 -19 42 -31
42 -51 0 -15 7 -169 15 -342 8 -173 13 -315 12 -317 -3 -2 -619 295 -625 302
-3 3 121 592 134 637 4 13 40 -4 192 -94 103 -60 206 -121 230 -135z m-589 85
c-15 -73 -39 -182 -52 -243 l-24 -110 -38 80 c-21 44 -55 120 -76 170 -34 81
-36 91 -21 99 12 7 227 129 238 135 1 1 -11 -59 -27 -131z m2990 -585 c1 -184
-1 -202 -16 -207 -220 -66 -397 -115 -401 -111 -2 2 87 166 199 364 l204 361
6 -103 c4 -56 7 -193 8 -304z m-1993 -71 c116 -180 206 -328 200 -330 -6 -1
-99 27 -206 63 l-195 64 -6 57 c-12 101 -21 489 -13 481 5 -5 104 -156 220
-335z m2663 6 c-89 -142 -171 -258 -183 -258 -17 0 -236 82 -236 89 0 4 446
243 468 250 1 1 -21 -36 -49 -81z m-3109 -248 c0 -7 -211 -100 -226 -100 -10
0 -105 138 -198 288 l-26 42 225 -112 c124 -62 225 -115 225 -118z m2441 -27
c1 -5 4 -144 8 -309 l6 -302 -303 -107 c-167 -59 -306 -104 -309 -102 -5 5
102 676 109 681 4 3 470 144 481 145 4 1 8 -2 8 -6z m268 -42 c73 -28 135 -52
138 -55 6 -6 -68 -114 -186 -274 -42 -57 -77 -97 -78 -90 -2 16 -10 468 -8
468 1 0 61 -22 134 -49z m-2585 -257 c4 -124 6 -228 3 -230 -4 -4 -137 159
-230 282 l-46 61 127 56 c70 31 130 56 133 56 3 1 9 -101 13 -225z m386 146
c129 -40 237 -74 238 -76 5 -3 192 -648 189 -650 -1 -2 -151 45 -333 103
l-330 106 -12 256 c-15 324 -15 344 1 339 6 -3 118 -38 247 -78z m1284 -147
c-2 -10 -20 -124 -40 -253 -19 -129 -38 -241 -40 -248 -2 -8 -44 20 -111 74
-60 47 -109 89 -111 93 -2 6 297 351 304 351 1 0 0 -8 -2 -17z m-684 -199 c99
-80 180 -147 180 -148 0 -2 -51 -51 -113 -109 l-114 -105 -68 241 c-38 133
-70 248 -73 255 -2 6 -1 12 2 12 4 0 88 -66 186 -146z m552 -443 c15 -15 7
-44 -121 -419 l-137 -403 -147 378 -146 378 141 141 141 142 126 -100 c69 -55
133 -107 143 -117z m666 132 c-8 -10 -66 -80 -127 -156 -100 -121 -115 -136
-130 -125 -42 31 -180 143 -178 145 4 4 431 152 441 152 5 1 2 -7 -6 -16z
m-1638 -133 c107 -34 201 -63 209 -66 10 -3 -14 -34 -74 -94 l-90 -90 -93 92
c-51 51 -125 128 -163 170 l-70 77 43 -14 c24 -8 131 -41 238 -75z m1198 -176
c53 -42 98 -80 100 -84 5 -13 -408 -490 -424 -490 -2 0 23 75 55 168 32 92 82
238 110 325 29 86 55 157 58 157 2 0 48 -34 101 -76z m-778 -254 c51 -129 98
-253 106 -275 13 -35 -9 -17 -188 162 l-203 203 90 90 c73 73 91 87 96 72 4
-9 48 -123 99 -252z" fill="#929194"></path></g></svg>