<svg xmlns:xlink="http://www.w3.org/1999/xlink" data-v-3d5c7389="" version="1.0" xmlns="http://www.w3.org/2000/svg" width="600" height="600" viewBox="0 0 600.000000 600.000000" preserveAspectRatio="xMidYMid meet" class="shape animated fadeOut v-leave-to" style="height: 279.32px;"><g data-v-3d5c7389="" transform="translate(0.000000,600.000000) scale(0.100000,-0.100000)" stroke="none" fill="#C0C0C0"><path data-v-3d5c7389="" d="M2772 5445 c-340 -62 -682 -295 -936 -638 -437 -592 -629 -1472 -505
-2312 12 -77 22 -151 24 -165 1 -14 5 -32 8 -40 3 -8 22 -82 42 -165 148 -602
492 -1123 910 -1383 258 -160 435 -208 725 -199 210 7 333 37 513 127 402 202
751 627 947 1155 201 543 252 1173 145 1794 -54 310 -144 582 -281 852 -271
534 -688 885 -1155 974 -100 19 -334 19 -437 0z m84 -177 c-19 -35 -95 -172
-169 -305 l-134 -243 -61 224 c-34 124 -62 229 -62 234 0 6 48 31 108 55 122
52 234 83 340 96 8 0 -1 -24 -22 -61z m502 0 c48 -16 90 -35 93 -40 3 -5 8 -8
10 -6 9 6 89 -35 89 -46 -1 -6 -27 -105 -59 -220 l-58 -209 -20 34 c-33 55
-293 535 -293 541 0 11 153 -24 238 -54z m-317 -88 c3 -3 63 -111 134 -240 70
-129 141 -259 157 -289 25 -44 28 -55 16 -66 -15 -14 -356 -225 -364 -225 -3
0 -83 46 -179 101 l-175 102 34 61 c19 33 87 160 151 281 65 121 133 249 153
285 l35 64 16 -34 c9 -19 19 -37 22 -40z m-617 -462 l24 -87 -26 5 c-15 2
-133 18 -262 35 -129 17 -236 32 -239 34 -6 7 142 185 206 246 32 31 87 80
123 108 l64 51 43 -152 c24 -84 54 -192 67 -240z m1430 227 c56 -55 112 -114
126 -131 14 -17 39 -48 55 -69 17 -20 38 -49 48 -65 l18 -28 -278 -4 c-153 -2
-279 -3 -281 -2 -2 1 25 105 60 232 l62 230 45 -31 c25 -18 90 -77 145 -132z
m-1739 -405 c110 -16 229 -32 265 -35 35 -3 65 -7 66 -8 2 -1 -32 -126 -74
-277 l-77 -274 -163 -98 c-90 -54 -166 -98 -170 -98 -4 0 -23 167 -41 371 -18
204 -36 389 -38 410 -7 47 -28 46 232 9z m1994 -62 c-1 -29 -5 -100 -9 -158
-4 -58 -10 -168 -14 -245 -4 -77 -10 -186 -14 -242 l-7 -102 -176 102 -175
102 -90 285 c-50 157 -89 287 -87 290 4 4 258 14 481 18 l92 2 -1 -52z m-635
-222 c36 -116 64 -211 62 -213 -2 -2 -98 52 -215 119 l-211 123 37 22 c21 12
88 53 148 91 61 38 111 68 111 68 1 -1 31 -95 68 -210z m-721 87 c53 -31 94
-60 90 -63 -16 -14 -376 -230 -378 -228 -2 2 22 92 53 200 l55 197 41 -25 c23
-13 85 -50 139 -81z m-958 -254 c17 -186 30 -339 29 -339 -2 0 -278 143 -283
146 -4 4 54 178 91 274 43 111 120 271 127 265 3 -4 19 -159 36 -346z m2493
226 c48 -106 110 -265 116 -292 1 -10 6 -26 10 -35 4 -9 8 -22 10 -30 1 -7 5
-19 10 -26 4 -7 5 -16 2 -19 -17 -18 -231 -161 -234 -158 -7 7 31 655 38 655
3 0 25 -43 48 -95z m-1005 -281 c166 -96 307 -181 314 -187 14 -15 144 -427
138 -438 -3 -4 -1 -9 3 -11 10 -4 122 -354 122 -381 0 -15 -277 -899 -283
-903 -1 0 -135 -81 -298 -178 l-296 -177 -288 173 -288 173 -124 434 c-68 239
-123 442 -123 450 0 24 238 863 247 872 8 7 565 348 571 349 1 0 138 -79 305
-176z m1217 -336 c6 -32 9 -62 6 -67 -4 -5 -2 -11 3 -13 10 -3 47 -255 56
-383 l6 -80 -20 25 c-11 14 -89 115 -174 225 l-154 200 126 86 c81 56 128 83
132 75 4 -6 12 -37 19 -68z m-2843 -10 c72 -37 134 -71 136 -76 5 -6 -294
-375 -353 -435 -17 -18 -17 -16 -13 55 12 196 67 531 87 526 6 -2 70 -33 143
-70z m572 21 c-6 -19 -13 -41 -16 -49 -3 -8 -7 -22 -9 -30 -8 -43 -109 -380
-114 -380 -6 0 -103 351 -98 355 19 14 243 144 245 141 2 -1 -2 -18 -8 -37z
m1716 -64 c55 -31 101 -58 102 -59 4 -4 -99 -330 -106 -338 -6 -7 -161 462
-161 486 0 4 15 -1 33 -12 17 -11 77 -45 132 -77z m-2031 -272 c14 -50 27
-100 29 -110 2 -10 7 -25 10 -33 4 -8 8 -26 9 -40 2 -14 5 -27 9 -30 7 -6 49
-154 49 -172 0 -15 -137 -508 -143 -514 -1 -2 -41 40 -88 94 -47 53 -145 166
-218 249 l-133 153 218 261 c147 177 220 256 224 247 4 -7 19 -54 34 -105z
m2296 35 c0 -4 6 -13 13 -20 31 -32 317 -408 317 -418 0 -11 -356 -463 -368
-468 -8 -2 -162 480 -163 508 0 8 33 117 73 242 l73 226 27 -31 c15 -18 27
-35 28 -39z m-2598 -839 c101 -116 183 -215 183 -220 0 -13 -259 -199 -266
-191 -11 11 -56 218 -74 332 -15 97 -34 290 -28 290 1 0 84 -95 185 -211z
m2434 -145 c5 -30 4 -31 -141 -118 -81 -48 -148 -86 -151 -83 -4 4 162 533
174 552 6 9 106 -288 118 -351z m500 185 c-17 -133 -61 -380 -74 -411 -6 -15
-26 -2 -119 78 l-113 95 81 102 c45 56 115 146 157 200 48 61 78 92 80 82 2
-8 -4 -74 -12 -146z m-2379 -136 c39 -142 70 -259 68 -261 -1 -2 -59 31 -128
73 l-125 77 19 66 c11 37 34 120 52 185 17 64 34 117 37 117 3 0 37 -116 77
-257z m1924 -345 c1 -73 4 -266 8 -428 4 -162 7 -295 7 -296 -5 -3 -578 64
-583 69 -5 6 149 502 166 534 5 10 381 247 399 252 2 1 3 -59 3 -131z m-1993
1 c2 -5 9 -9 15 -9 6 0 49 -23 97 -51 l85 -51 77 -276 c42 -152 75 -278 75
-278 -1 -1 -125 -15 -274 -31 -240 -25 -273 -27 -273 -13 -1 34 51 757 56 777
4 22 6 22 72 -18 37 -23 69 -45 70 -50z m2230 -2 c50 -44 92 -85 92 -91 0 -38
-91 -279 -149 -394 l-39 -77 -6 210 c-3 116 -8 263 -10 328 -3 87 -1 115 7
110 7 -4 54 -43 105 -86z m-2525 -258 c-12 -182 -24 -333 -27 -336 -13 -14
-213 454 -204 478 2 5 247 189 253 189 0 0 -9 -149 -22 -331z m1047 -189 c0
-4 -100 -66 -241 -149 l-36 -21 -53 193 c-29 105 -55 198 -58 205 -2 7 84 -40
192 -105 108 -65 196 -120 196 -123z m620 84 c-28 -82 -53 -156 -57 -164 -3
-8 -8 -26 -10 -40 -2 -14 -8 -29 -12 -33 -7 -7 -271 142 -270 153 0 5 392 238
396 235 2 -1 -20 -69 -47 -151z m-294 -276 l172 -104 -171 -322 c-95 -177
-174 -322 -177 -322 -3 1 -88 145 -189 322 -143 250 -181 322 -170 329 8 4 88
53 179 108 91 55 170 99 175 97 6 -2 87 -51 181 -108z m647 -183 c126 -14 231
-25 234 -25 9 0 -86 -111 -171 -198 -77 -79 -204 -189 -209 -181 -3 4 -115
359 -132 416 -6 20 -3 22 22 18 15 -3 131 -16 256 -30z m-1433 -105 c-22 -69
-43 -132 -46 -140 -4 -8 -8 -19 -9 -25 -2 -5 -10 -36 -20 -68 l-17 -57 -30 21
c-84 60 -318 307 -318 336 0 7 463 63 477 58 1 0 -16 -57 -37 -125z m335 -248
c86 -150 155 -276 151 -279 -8 -8 -117 15 -211 44 -111 35 -258 110 -251 128
3 8 33 102 67 210 49 151 66 193 74 183 7 -7 83 -136 170 -286z m741 161 c21
-71 39 -132 39 -138 0 -5 3 -12 6 -15 7 -6 50 -132 46 -136 -13 -11 -158 -77
-214 -97 -71 -26 -223 -59 -223 -49 0 10 295 562 301 562 3 0 23 -57 45 -127z" fill="#C0C0C0"></path></g></svg>