<svg xmlns:xlink="http://www.w3.org/1999/xlink" data-v-3d5c7389="" version="1.0" xmlns="http://www.w3.org/2000/svg" width="600" height="600" viewBox="0 0 600.000000 600.000000" preserveAspectRatio="xMidYMid meet" class="shape" style="height: 87%;"><g data-v-3d5c7389="" transform="translate(0.000000,600.000000) scale(0.100000,-0.100000)" stroke="none" fill="#929194"><path data-v-3d5c7389="" d="M2907 5410 c-718 -472 -1335 -1422 -1586 -2440 -193 -782 -153 -1260
140 -1701 164 -245 468 -476 804 -609 108 -43 315 -95 453 -114 147 -21 426
-21 573 0 732 102 1270 551 1444 1206 45 171 57 256 62 463 4 155 2 232 -12
335 -74 593 -335 1283 -698 1847 -266 413 -631 788 -981 1007 -49 31 -96 56
-105 56 -10 0 -52 -23 -94 -50z m299 -532 c108 -183 206 -347 217 -365 l19
-32 -174 -114 c-95 -62 -190 -123 -210 -135 l-37 -23 -198 132 c-109 72 -202
135 -207 140 -9 8 371 729 384 729 4 0 97 -150 206 -332z m206 125 c91 -84
261 -263 298 -313 l18 -26 -87 -56 -88 -56 -196 329 -196 329 79 -61 c44 -34
121 -99 172 -146z m-744 -120 c-94 -175 -172 -319 -173 -321 -2 -2 -44 24 -94
58 l-92 61 20 27 c40 56 288 307 394 398 60 52 111 94 112 94 2 0 -74 -143
-167 -317z m-330 -378 c34 -22 62 -42 62 -46 0 -3 -93 -72 -207 -154 -115 -82
-224 -160 -243 -174 l-34 -26 24 40 c69 115 149 241 213 332 l72 102 26 -17
c14 -9 54 -35 87 -57z m1605 -125 c46 -69 94 -143 108 -165 l24 -40 -30 19
c-17 11 -112 74 -212 141 l-182 121 82 51 82 52 23 -27 c12 -15 60 -83 105
-152z m-1187 -150 c143 -97 164 -114 152 -126 -38 -38 -493 -451 -495 -450 -2
1 32 159 74 349 55 247 81 346 90 343 6 -3 87 -55 179 -116z m797 -229 c37
-179 66 -326 64 -327 -2 -2 -389 354 -451 416 l-29 28 169 111 c93 60 172 107
175 103 3 -4 36 -153 72 -331z m362 126 l250 -164 6 -154 c4 -85 7 -268 8
-407 l1 -254 -197 184 -198 184 -77 385 c-42 211 -77 390 -77 397 -1 17 -10
22 284 -171z m-1501 146 c-3 -16 -42 -198 -87 -405 l-82 -377 -210 -193 -210
-192 -6 119 c-4 66 -7 239 -7 385 l-2 265 298 212 c163 116 300 212 304 212 4
1 5 -11 2 -26z m936 -527 c171 -160 313 -299 315 -310 3 -12 57 -278 120 -592
l116 -572 -137 -353 c-75 -195 -142 -359 -148 -365 -11 -10 -567 -144 -599
-144 -12 0 -621 206 -634 215 -2 1 -62 153 -134 339 l-132 337 123 562 123
562 331 307 c182 169 334 307 338 305 4 -1 147 -132 318 -291z m1056 -264
c112 -283 199 -605 239 -880 9 -63 14 -116 12 -118 -3 -3 -79 112 -170 255
l-165 261 -6 162 c-3 90 -8 255 -11 368 l-5 205 21 -45 c12 -25 50 -118 85
-208z m-2873 -724 c-86 -122 -159 -216 -161 -210 -5 17 35 233 74 389 41 170
107 378 178 563 l51 135 8 -328 8 -327 -158 -222z m2470 380 c89 -84 163 -158
165 -163 5 -21 -175 -479 -181 -459 -3 10 -38 181 -77 379 -39 198 -73 368
-76 378 -3 9 -3 17 1 17 3 0 79 -69 168 -152z m-1893 -254 c-45 -202 -82 -370
-84 -371 -2 -2 -45 94 -96 212 -54 126 -89 220 -84 225 86 81 339 309 341 306
2 -1 -33 -169 -77 -372z m2344 -338 c103 -160 185 -293 184 -297 -2 -4 -92
-125 -202 -269 l-199 -263 -100 271 -99 271 107 283 c111 293 115 301 120 296
2 -2 87 -133 189 -292z m-2590 5 l116 -263 -112 -259 c-62 -142 -115 -259
-118 -259 -9 0 -373 512 -373 525 0 11 364 527 369 522 1 -1 55 -121 118 -266z
m-171 -937 c4 -6 29 -121 57 -255 27 -134 52 -255 56 -269 4 -20 -9 -11 -66
45 -239 235 -378 542 -406 900 l-6 90 179 -250 c98 -137 182 -255 186 -261z
m457 234 c44 -111 73 -198 66 -198 -34 0 -322 44 -330 51 -4 4 29 98 75 209
l84 201 14 -33 c7 -18 48 -122 91 -230z m1894 12 c41 -112 73 -206 71 -208 -4
-4 -315 -72 -331 -72 -6 0 31 110 84 245 53 135 97 244 98 242 2 -1 37 -94 78
-207z m591 63 c-46 -253 -149 -485 -299 -677 -58 -74 -126 -147 -126 -135 0 3
18 104 39 226 l39 221 178 237 c98 131 180 233 182 227 2 -6 -4 -51 -13 -99z
m-2536 -381 l184 -27 73 -185 73 -185 -236 -57 c-130 -32 -237 -57 -238 -56
-3 4 -115 531 -115 541 0 4 17 5 38 1 20 -3 120 -17 221 -32z m2051 -28 c0
-21 -84 -460 -89 -466 -6 -6 -437 85 -447 94 -6 6 94 269 107 283 6 6 101 29
212 51 236 49 217 46 217 38z m-1512 -118 c86 -30 166 -58 176 -62 15 -6 -10
-22 -115 -75 -74 -37 -137 -68 -141 -68 -6 -1 -108 250 -108 265 0 3 7 3 16 0
8 -3 86 -30 172 -60z m890 -98 c-23 -57 -43 -105 -45 -108 -2 -2 -62 25 -133
60 -71 35 -127 67 -124 70 4 4 305 75 336 79 3 1 -12 -45 -34 -101z m-323
-132 c108 -51 196 -97 197 -101 0 -4 -84 -88 -187 -187 l-186 -181 -32 30
c-18 16 -108 101 -200 188 l-169 159 184 93 c101 50 186 92 190 92 4 1 95 -41
203 -93z m-536 -313 c97 -91 183 -173 191 -181 37 -36 -276 17 -463 79 -120
39 -347 142 -347 157 0 7 392 109 429 111 7 1 92 -74 190 -166z m1098 119
l212 -48 -42 -26 c-155 -96 -413 -188 -617 -218 -41 -6 -91 -13 -110 -16 -33
-5 -23 6 145 175 99 100 184 181 190 181 5 0 105 -22 222 -48z" fill="#929194"></path></g></svg>