<svg xmlns:xlink="http://www.w3.org/1999/xlink" version="1.0" xmlns="http://www.w3.org/2000/svg" width="600" height="600" viewBox="0 0 600.000000 600.000000" preserveAspectRatio="xMidYMid meet" class="shape" style="height:87%;" data-v-3d5c7389=""><g transform="translate(0.000000,600.000000) scale(0.100000,-0.100000)" stroke="none" data-v-3d5c7389="" fill="#929194"><path d="M552 5448 c-17 -17 -17 -4879 0 -4896 17 -17 4879 -17 4896 0 9 9 12
566 12 2443 0 2343 -1 2433 -18 2448 -17 16 -201 17 -2448 17 -1877 0 -2433
-3 -2442 -12z m4528 -117 c-8 -5 -178 -81 -377 -170 l-361 -161 -1339 0 -1340
0 -374 166 c-206 91 -376 168 -378 170 -2 2 938 4 2090 4 1176 0 2087 -4 2079
-9z m-4065 -189 c149 -66 281 -126 295 -132 14 -7 84 -38 155 -69 l130 -58 3
-379 2 -379 -157 -29 c-87 -16 -162 -30 -166 -30 -7 -1 -186 395 -507 1117
-22 48 -36 86 -32 83 4 -2 129 -58 277 -124z m4219 51 c-20 -43 -39 -80 -42
-83 -4 -3 -8 -12 -10 -20 -3 -14 -461 -1020 -468 -1029 -3 -3 -178 26 -296 51
l-48 10 0 372 0 373 448 201 c246 110 448 201 449 201 1 1 -14 -34 -33 -76z
m104 -3243 l-3 -1049 -267 585 -268 585 0 929 0 929 268 585 267 585 3 -1049
c1 -578 1 -1522 0 -2100z m-4603 2986 c36 -81 66 -153 68 -159 1 -7 4 -14 7
-17 8 -8 49 -103 52 -120 2 -8 6 -17 9 -20 8 -6 177 -383 181 -402 2 -7 5 -15
8 -18 11 -10 53 -110 53 -125 0 -8 3 -15 7 -15 28 0 30 -72 30 -1055 l0 -1005
-81 -182 c-45 -101 -84 -185 -87 -188 -4 -3 -8 -12 -10 -20 -3 -15 -286 -660
-303 -690 -5 -8 -9 927 -9 2079 0 1152 2 2092 5 2090 2 -3 34 -71 70 -153z
m3275 -85 c-32 -19 -1006 -454 -1015 -454 -9 0 -1015 451 -1024 459 -2 2 459
4 1025 4 578 0 1022 -4 1014 -9z m-1747 -266 c283 -126 514 -231 513 -233 -4
-3 -1021 -202 -1035 -202 -8 0 -11 103 -11 336 0 195 4 334 9 332 5 -1 241
-106 524 -233z m1977 -111 l0 -326 -27 5 c-329 62 -991 192 -989 194 5 5 1000
451 1009 452 4 1 7 -146 7 -325z m-628 -334 c334 -66 612 -120 618 -120 7 0
10 -330 10 -1015 l0 -1015 -22 -5 c-13 -3 -291 -59 -618 -125 l-595 -120 -637
122 -638 123 0 1015 0 1015 623 121 c342 67 628 122 636 123 8 1 288 -53 623
-119z m-2012 -487 c0 -185 -2 -334 -4 -332 -2 2 -64 139 -136 304 -73 165
-134 303 -136 307 -3 5 218 53 264 57 9 1 12 -72 12 -336z m2920 308 c74 -15
134 -32 133 -37 -2 -11 -260 -581 -273 -603 -6 -10 -10 116 -10 327 0 188 3
342 8 342 4 -1 68 -14 142 -29z m-3100 -572 c72 -162 132 -302 133 -311 1 -10
4 -18 8 -18 3 0 11 -12 18 -26 10 -23 -1 -55 -123 -332 -74 -169 -144 -327
-155 -352 l-21 -45 0 694 c0 382 2 692 5 689 3 -2 64 -137 135 -299z m3258
-710 l-3 -321 -147 321 -147 321 147 321 147 321 3 -321 c1 -177 1 -465 0
-642z m-3082 -656 c-6 -6 -250 38 -260 48 -5 4 49 139 125 309 l134 302 3
-328 c1 -180 0 -329 -2 -331z m2844 518 c34 -74 62 -139 63 -145 1 -6 4 -13 7
-16 11 -11 73 -150 73 -164 0 -9 4 -16 8 -16 8 0 19 -28 18 -44 0 -5 3 -12 8
-15 9 -7 35 -62 31 -66 -4 -3 -257 -55 -270 -55 -4 0 -8 149 -8 332 0 182 2
329 4 327 2 -2 32 -64 66 -138z m288 -618 c6 -16 13 -35 14 -43 2 -8 6 -17 9
-20 10 -7 88 -178 91 -198 2 -10 6 -19 10 -22 4 -3 97 -206 208 -450 111 -245
204 -448 206 -452 5 -8 -5 -4 -553 242 l-343 154 0 375 0 376 148 32 c189 40
197 40 210 6z m-3302 -8 c71 -14 139 -28 152 -31 l22 -4 -2 -382 -3 -381 -355
-158 c-195 -88 -390 -175 -433 -194 -43 -19 -76 -31 -74 -27 3 4 120 268 261
586 141 318 261 587 267 597 12 24 11 24 165 -6z m2814 -389 l0 -335 -137 63
c-76 34 -306 138 -512 231 l-375 169 505 102 c277 56 507 102 512 103 4 1 7
-149 7 -333z m-1978 224 c281 -55 512 -101 513 -102 2 -2 -1000 -453 -1036
-466 -5 -2 -9 135 -9 332 0 233 3 336 11 336 6 0 240 -45 521 -100z m1241
-372 l501 -223 -502 -3 c-276 -1 -728 -1 -1004 0 l-501 3 494 221 c272 122
498 222 503 223 5 0 234 -99 509 -221z m1197 -535 l393 -178 -1046 -3 c-576
-1 -1518 -1 -2094 0 l-1046 3 394 177 394 177 1306 1 1306 0 393 -177z" data-v-3d5c7389="" fill="#929194"></path></g></svg>