<svg xmlns:xlink="http://www.w3.org/1999/xlink" data-v-3d5c7389="" version="1.0" xmlns="http://www.w3.org/2000/svg" width="600" height="600" viewBox="0 0 600.000000 600.000000" preserveAspectRatio="xMidYMid meet" class="shape" style="height: 87%;"><g data-v-3d5c7389="" transform="translate(0.000000,600.000000) scale(0.100000,-0.100000)" stroke="none" fill="#929194"><path data-v-3d5c7389="" d="M997 5102 l-357 -357 -7 -1703 -6 -1703 399 -400 399 -399 1570 0
c1232 1 1574 3 1590 13 11 7 192 186 403 397 l382 385 0 1715 0 1715 -403 347
-402 347 -1605 0 -1605 1 -358 -358z m3332 166 c-35 -40 -122 -133 -193 -205
l-129 -133 -1088 0 -1087 0 -70 83 c-81 95 -242 308 -242 319 0 4 646 8 1436
8 l1436 0 -63 -72z m307 -45 c18 -15 64 -54 103 -87 39 -32 71 -63 71 -67 0
-5 5 -9 10 -9 8 0 241 -190 344 -281 5 -5 8 -11 5 -13 -6 -7 -499 -135 -544
-141 -40 -6 -41 -5 -226 152 l-185 159 93 104 c51 58 123 141 160 186 l68 81
35 -28 c19 -16 49 -41 66 -56z m-3127 -98 c66 -88 133 -175 147 -193 l27 -33
-166 -166 -165 -167 -84 23 c-93 26 -429 130 -441 138 -4 2 117 132 270 288
153 156 281 280 284 277 4 -4 61 -79 128 -167z m2285 -371 c-208 -162 -439
-283 -641 -334 -391 -100 -770 14 -1148 344 l-40 35 944 1 944 0 -59 -46z
m326 -97 l0 -143 -72 -13 c-93 -16 -376 -57 -448 -65 l-55 -6 54 30 c94 52
242 156 356 249 78 64 118 90 138 91 l27 0 0 -143z m-2372 -173 c-3 -3 -169
28 -222 41 -28 8 -27 9 95 132 l124 123 3 -146 c1 -81 1 -148 0 -150z m2665
96 c-5 -4 -35 -12 -68 -19 -33 -7 -68 -15 -77 -17 -16 -5 -18 4 -18 91 l0 96
85 -72 c47 -40 82 -76 78 -79z m-2303 -64 c52 -35 111 -73 130 -85 l35 -22
-80 6 c-44 4 -132 14 -195 23 l-115 17 -3 124 -3 123 68 -61 c37 -34 111 -91
163 -125z m3138 -2242 l-3 -776 -106 89 c-58 48 -145 124 -192 168 l-87 79 0
1217 0 1218 98 88 c53 49 140 124 192 168 l95 79 3 -777 c1 -427 1 -1126 0
-1553z m-268 2283 c-14 -13 -54 -51 -90 -85 l-66 -61 -54 49 -55 48 30 8 c17
4 75 19 130 34 128 35 135 36 105 7z m-4100 -77 c41 -36 119 -108 173 -160
l100 -95 -6 -485 c-3 -267 -6 -807 -6 -1200 l-1 -715 -67 -67 c-38 -37 -122
-112 -188 -167 l-120 -101 -3 618 c-2 339 0 1032 4 1540 6 850 8 921 23 910 9
-7 50 -42 91 -78z m3765 -88 l86 -74 -63 -67 c-141 -149 -269 -328 -363 -503
l-55 -103 0 380 0 380 143 31 c78 17 147 31 154 30 6 0 50 -34 98 -74z m-3151
7 c50 -11 98 -23 106 -26 8 -3 24 -7 35 -8 11 -1 41 -5 68 -9 l47 -8 0 -372 0
-371 -54 100 c-94 177 -207 340 -342 490 -41 46 -74 90 -74 97 0 11 108 128
118 128 3 0 46 -9 96 -21z m2626 -1360 l0 -1341 -32 6 c-61 11 -362 46 -548
63 -235 22 -977 25 -1200 5 -180 -16 -408 -41 -437 -47 l-23 -5 0 1300 c0
1252 1 1300 18 1300 10 0 65 -7 123 -15 187 -26 500 -50 734 -56 70 -2 567 24
685 36 170 17 456 57 565 79 39 8 80 15 93 15 l22 1 0 -1341z m618 -531 l-3
-541 -84 106 c-208 262 -321 484 -377 742 -24 112 -24 350 0 464 55 256 186
515 393 771 l68 84 3 -542 c1 -298 1 -786 0 -1084z m-3362 1450 c185 -243 299
-478 350 -718 24 -114 24 -343 0 -455 -55 -252 -179 -493 -381 -740 l-70 -85
-3 432 c-4 592 8 1679 19 1672 5 -3 43 -50 85 -106z m3039 -1788 c35 -52 86
-123 113 -157 28 -33 48 -64 45 -67 -4 -3 -2 -6 3 -6 5 0 45 -39 88 -86 l79
-86 -77 -77 -78 -78 -61 12 c-34 7 -110 21 -169 31 l-108 17 0 391 0 391 51
-95 c28 -52 79 -138 114 -190z m-2672 -470 c-5 -4 -84 -22 -177 -40 l-168 -33
-66 66 -65 65 77 84 c143 153 312 393 383 542 18 39 18 37 21 -319 1 -198 -1
-362 -5 -365z m3193 -119 c52 -47 63 -62 44 -57 -14 3 -73 16 -132 28 l-108
23 47 47 c53 54 43 57 149 -41z m-1791 54 c230 -47 474 -171 708 -360 l87 -70
-485 -3 c-267 -1 -704 -1 -973 0 l-487 3 95 83 c350 306 698 420 1055 347z
m-850 -38 c-106 -58 -203 -129 -344 -256 l-71 -63 0 150 0 150 28 6 c15 3 90
12 167 21 201 21 206 22 245 23 34 2 34 1 -25 -31z m1575 -2 c118 -15 223 -28
233 -31 15 -5 17 -22 17 -175 l0 -169 -115 99 c-117 101 -269 210 -385 275
l-65 37 50 -5 c28 -3 147 -17 265 -31z m-2122 -240 l-3 -75 -118 118 -118 118
118 25 118 25 3 -68 c2 -37 2 -101 0 -143z m2611 168 c53 -9 99 -19 103 -22 4
-4 -42 -56 -102 -116 l-110 -110 0 133 c0 72 3 132 7 132 4 0 50 -7 102 -17z
m-2820 -227 c140 -140 182 -188 174 -198 -5 -7 -46 -58 -89 -113 -44 -55 -106
-138 -138 -184 l-59 -83 -303 303 c-167 167 -300 307 -296 311 10 10 478 144
512 147 8 0 98 -82 199 -183z m3263 129 c201 -47 351 -86 362 -96 4 -4 -126
-143 -291 -309 l-299 -302 -100 118 c-56 66 -129 148 -162 184 l-61 65 187
188 c103 103 192 187 199 187 6 0 81 -16 165 -35z m-665 -411 c26 -31 70 -79
96 -107 27 -29 53 -56 58 -62 11 -12 128 -154 142 -173 8 -9 -282 -12 -1438
-12 l-1447 0 48 68 c62 87 166 223 223 290 l45 52 1112 0 1113 0 48 -56z" fill="#929194"></path></g></svg>