<svg xmlns:xlink="http://www.w3.org/1999/xlink" data-v-3d5c7389="" version="1.0" xmlns="http://www.w3.org/2000/svg" width="600" height="600" viewBox="0 0 600.000000 600.000000" preserveAspectRatio="xMidYMid meet" class="shape" style="height: 87%;"><g data-v-3d5c7389="" transform="translate(0.000000,600.000000) scale(0.100000,-0.100000)" stroke="none" fill="#929194"><path data-v-3d5c7389="" d="M2710 5449 c-531 -64 -1054 -314 -1420 -679 -253 -252 -449 -549
-581 -882 -124 -314 -169 -551 -169 -888 0 -287 38 -525 122 -769 21 -64 40
-123 41 -131 1 -8 4 -17 7 -20 3 -3 38 -72 78 -155 41 -82 103 -194 138 -248
35 -54 64 -102 64 -107 0 -6 3 -10 8 -10 4 0 28 -27 52 -60 25 -34 86 -105
137 -158 51 -53 93 -101 93 -107 0 -5 16 -21 34 -35 18 -14 64 -51 102 -83
685 -581 1632 -733 2491 -401 365 141 756 425 996 724 290 360 473 789 538
1260 8 55 14 189 14 320 -1 254 -15 379 -70 595 -45 178 -84 280 -175 464
-201 404 -473 711 -854 966 -114 76 -341 196 -431 228 -22 8 -87 33 -145 55
-121 47 -219 74 -375 104 -90 17 -156 21 -365 24 -140 1 -289 -2 -330 -7z
m-76 -436 c-130 -175 -241 -324 -247 -331 -7 -9 -38 54 -114 240 -57 138 -100
255 -96 259 14 14 194 68 307 93 114 26 276 50 358 55 25 1 7 -26 -208 -316z
m696 296 c118 -16 256 -48 372 -85 101 -33 107 -36 99 -57 -29 -73 -173 -423
-180 -434 -5 -10 -75 73 -232 273 -123 158 -230 296 -238 307 -13 18 -11 18
45 12 33 -3 93 -11 134 -16z m-197 -191 c70 -90 130 -168 135 -173 5 -6 61
-78 126 -160 64 -83 122 -157 130 -165 13 -13 -20 -30 -276 -142 l-290 -128
-245 102 c-154 64 -242 106 -239 113 7 19 520 715 527 715 3 0 63 -73 132
-162z m900 -24 c171 -86 345 -201 480 -317 32 -27 56 -51 54 -53 -6 -6 -818
-56 -823 -51 -5 5 186 467 193 467 2 0 45 -21 96 -46z m-1942 -81 c24 -60 44
-112 44 -118 0 -5 3 -12 6 -15 8 -6 110 -252 106 -256 -1 -2 -185 19 -407 46
-223 27 -407 50 -409 50 -16 1 196 170 296 236 98 64 282 164 304 164 10 0 30
-35 60 -107z m-252 -473 c238 -27 435 -51 438 -53 2 -2 -47 -121 -110 -263
l-113 -259 -290 -127 c-159 -70 -294 -127 -299 -127 -6 -1 -30 171 -59 412
-27 226 -51 426 -53 443 -5 29 -3 31 23 27 16 -2 224 -26 463 -53z m2818 8
c-3 -24 -27 -224 -53 -445 -26 -222 -50 -403 -53 -403 -4 1 -134 54 -290 118
l-285 117 -127 298 c-70 163 -122 297 -115 298 6 0 198 13 426 29 228 15 435
28 459 29 l44 1 -6 -42z m-3373 -432 c25 -208 45 -380 44 -382 -2 -1 -106 40
-233 91 -187 76 -229 97 -227 111 8 39 125 257 191 355 92 137 161 223 170
213 4 -5 29 -180 55 -388z m3589 275 c40 -53 98 -140 130 -193 63 -105 152
-287 144 -294 -9 -10 -451 -184 -455 -179 -4 4 73 692 84 748 3 15 10 24 16
21 5 -3 42 -50 81 -103z m-1264 62 c51 -110 191 -436 189 -439 -2 -1 -153 59
-337 134 -246 101 -328 138 -314 144 10 5 110 48 223 98 113 49 210 90 216 90
6 0 16 -12 23 -27z m-1012 -90 c101 -42 181 -78 178 -81 -3 -3 -126 -58 -274
-122 -222 -96 -268 -113 -261 -96 4 12 38 91 75 176 37 85 71 165 76 178 5 12
12 22 16 22 4 0 90 -34 190 -77z m822 -345 l453 -183 185 -430 184 -429 -184
-430 -185 -429 -458 -184 c-253 -100 -463 -183 -468 -183 -15 0 -800 351 -813
364 -15 14 -363 826 -363 846 0 8 87 214 193 458 l192 443 390 169 c215 93
397 169 406 170 9 0 220 -82 468 -182z m-2368 -320 c125 -51 226 -94 226 -95
-18 -17 -602 -461 -604 -459 -7 7 20 208 41 316 28 138 85 330 99 330 6 0 112
-42 238 -92z m793 -230 c-74 -172 -138 -316 -143 -321 -7 -7 -202 423 -196
431 6 7 450 200 462 201 6 1 -49 -140 -123 -311z m3400 159 c33 -120 68 -305
80 -431 l6 -58 -38 28 c-149 111 -551 420 -551 425 -1 3 101 46 227 96 174 70
229 88 235 78 4 -7 23 -70 41 -138z m-964 43 c113 -45 209 -86 213 -90 6 -5
-163 -412 -178 -428 -2 -2 -49 105 -232 532 -19 44 -28 76 -21 73 7 -2 105
-42 218 -87z m-2774 -428 l119 -278 -109 -252 c-61 -139 -114 -252 -118 -252
-8 0 -682 529 -685 539 -2 6 656 520 668 521 3 0 59 -125 125 -278z m3452 13
c182 -137 330 -253 329 -257 -5 -15 -662 -567 -668 -560 -8 10 -229 529 -229
539 0 16 225 533 231 531 3 -2 155 -115 337 -253z m-4083 -555 c99 -79 185
-148 192 -154 7 -6 61 -49 121 -96 l108 -85 -234 -97 c-129 -54 -238 -95 -242
-93 -22 13 -100 306 -124 465 -25 168 -29 225 -14 213 7 -5 94 -74 193 -153z
m4440 17 c-16 -133 -33 -224 -66 -342 -28 -97 -70 -215 -78 -215 -4 0 -105 42
-225 94 l-218 94 297 251 c164 138 299 250 301 248 2 -2 -3 -61 -11 -130z
m-855 -253 l38 -91 -224 -91 c-123 -50 -224 -88 -224 -84 0 4 59 143 132 310
l132 303 54 -128 c29 -70 71 -169 92 -219z m-2632 26 c67 -157 122 -288 122
-292 0 -5 -408 176 -418 187 -3 2 33 94 79 204 46 110 87 197 90 193 3 -4 61
-135 127 -292z m-21 -374 l222 -98 115 -271 c64 -149 115 -272 113 -272 -3 -3
-830 -116 -842 -115 -7 0 2 149 27 438 20 240 37 443 38 449 0 9 16 6 53 -10
28 -13 152 -68 274 -121z m-487 -227 c-41 -491 -38 -464 -60 -444 -36 32 -180
223 -236 311 -68 108 -158 284 -149 293 7 7 468 198 473 196 1 -1 -11 -161
-28 -356z m3233 304 c13 -124 60 -823 56 -827 -3 -4 -890 44 -896 49 -1 0 56
136 127 300 l128 300 284 117 c156 65 286 117 289 118 4 0 9 -26 12 -57z m343
-64 c115 -50 213 -94 218 -99 21 -20 -161 -323 -297 -494 -71 -89 -72 -89 -79
-60 -4 16 -17 164 -28 329 -11 165 -23 326 -27 358 -3 31 -3 57 -1 57 3 0 99
-41 214 -91z m-1106 -197 c0 -4 -46 -114 -103 -243 l-102 -235 -234 105 c-159
72 -229 108 -220 114 16 10 640 265 652 266 4 1 7 -3 7 -7z m-1023 -256 c4 -4
-369 -156 -382 -156 -5 0 -44 79 -85 176 -41 97 -80 188 -87 203 -11 27 3 22
270 -96 155 -68 283 -125 284 -127z m460 -203 c156 -70 282 -132 281 -138 -2
-6 -109 -146 -238 -311 l-234 -300 -291 334 c-159 183 -291 337 -292 340 -2 6
459 199 481 201 5 1 137 -56 293 -126z m-1001 -160 c-57 -153 -182 -433 -194
-433 -43 0 -397 217 -502 308 l-45 39 85 12 c47 7 207 29 355 50 326 47 309
46 301 24z m414 -335 l273 -311 -97 7 c-167 11 -485 80 -628 135 l-27 10 45
108 c25 59 69 165 97 235 29 70 55 128 58 128 3 0 128 -140 279 -312z m1515
276 c165 -8 315 -18 334 -22 l33 -7 -109 -82 c-170 -127 -456 -292 -487 -280
-10 4 -186 393 -186 412 0 4 26 4 58 1 31 -3 192 -13 357 -22z m-372 -446 c-7
-13 -217 -76 -325 -97 -96 -19 -279 -44 -284 -38 -2 1 95 129 214 283 l217
281 91 -211 c50 -116 90 -214 87 -218z" fill="#929194"></path></g></svg>